<svg xmlns="http://www.w3.org/2000/svg" version="1.1" xmlns:xlink="http://www.w3.org/1999/xlink" xmlns:svgjs="http://svgjs.dev/svgjs" width="1000" height="623" viewBox="0 0 1000 623"><g transform="matrix(1,0,0,1,-0.6060606060606233,0.2522267206477977)"><svg viewBox="0 0 396 247" data-background-color="#ffffff" preserveAspectRatio="xMidYMid meet" height="623" width="1000" xmlns="http://www.w3.org/2000/svg" xmlns:xlink="http://www.w3.org/1999/xlink"><g id="tight-bounds" transform="matrix(1,0,0,1,0.2400000000000091,-0.09999999999999432)"><svg viewBox="0 0 395.52 247.2" height="247.2" width="395.52"><g><svg></svg></g><g><svg viewBox="0 0 395.52 247.2" height="247.2" width="395.52"><g transform="matrix(1,0,0,1,75.54432,53.86380495801171)"><svg viewBox="0 0 244.43135999999998 139.47239008397656" height="139.47239008397656" width="244.43135999999998"><g><svg viewBox="0 0 244.43135999999998 139.47239008397656" height="139.47239008397656" width="244.43135999999998"><g><svg viewBox="0 0 244.43135999999998 139.47239008397656" height="139.47239008397656" width="244.43135999999998"><g><svg viewBox="0 0 244.43135999999998 139.47239008397656" height="139.47239008397656" width="244.43135999999998"><g><svg viewBox="0 0 244.43135999999998 139.47239008397656" height="139.47239008397656" width="244.43135999999998"><g><svg viewBox="0 0 244.43135999999998 98.57583954929576" height="98.57583954929576" width="244.43135999999998"><g transform="matrix(1,0,0,1,0,0)"><svg width="244.43135999999998" viewBox="1.05 -40.2 106.49000000000001 42.95" height="98.57583954929576" data-palette-color="#ff3c38"><path d="M24.6-18.75L24.6-18.75 19.25-18.8Q12.65-18.8 8.95-15.6L8.95-15.6Q4.6-11.9 4.6-7L4.6-7Q4.6-4.7 5.68-2.78 6.75-0.85 9.53 0.4 12.3 1.65 17.03 1.65 21.75 1.65 27-0.35 32.25-2.35 35.85-5.15L35.85-5.15Q39.95-8.35 39.95-10.75L39.95-10.75Q39.95-11.9 38.75-12.18 37.55-12.45 37.5-12.8L37.5-12.8Q37.4-13.25 38.25-13.2 39.1-13.15 39.65-12.85L39.65-12.85Q41.9-11.65 41.9-9.75L41.9-9.75Q41.9-6.95 38.02-3.9 34.15-0.85 28.25 0.95 22.35 2.75 17.2 2.75 12.05 2.75 8.85 1.75L8.85 1.75Q3.2 0 1.5-4.7L1.5-4.7Q1.05-5.9 1.05-7 1.05-8.1 1.45-9.73 1.85-11.35 3.25-13.45 4.65-15.55 7.3-17.35 9.95-19.15 12.98-20.03 16-20.9 18.4-21L18.4-21Q15.9-21.9 14.15-23.5 12.4-25.1 12.4-26.95L12.4-26.95Q12.4-27.1 12.4-27.25L12.4-27.25Q12.75-31.3 16.95-34.52 21.15-37.75 25.75-38.98 30.35-40.2 33.7-40.2L33.7-40.2Q34.75-40.2 35.75-40.1L35.75-40.1Q39.9-39.6 41.7-38.02 43.5-36.45 43.5-34.85L43.5-34.85Q43.5-32.6 40.93-30.53 38.35-28.45 34.7-27.65L34.7-27.65Q33.8-27.45 33.23-27.45 32.65-27.45 32.7-27.75L32.7-27.75Q32.9-28.35 34.4-28.53 35.9-28.7 37.3-29.7L37.3-29.7Q40.1-31.75 40.5-35L40.5-35Q40.5-35.15 40.5-35.3L40.5-35.3Q40.5-36.55 39.3-37.6L39.3-37.6Q37.8-39 34.25-39 30.7-39 26.9-37.88 23.1-36.75 19.9-34.15L19.9-34.15Q16.1-31.05 16.1-27.4L16.1-27.4Q16.1-25.95 16.98-24.75 17.85-23.55 19.53-22.98 21.2-22.4 22.9-22L22.9-22Q26.75-21.2 26.75-19.9L26.75-19.9Q26.75-18.75 24.6-18.75ZM58.7-16.4L58.7-16.4Q52.55-5.6 52.55-2.3L52.55-2.3Q52.55-1 53.5-1L53.5-1Q56.05-1 60.35-9.65L60.35-9.65Q60.65-10.35 60.95-10.2 61.25-10.05 61.25-9.8 61.25-9.55 61.05-9.2L61.05-9.2Q58.4-3.85 56.57-1.83 54.75 0.2 52.92 0.2 51.1 0.2 50.15-1.2L50.15-1.2Q49.65-1.85 49.65-2.98 49.65-4.1 50.15-5.7 50.65-7.3 52.9-10.9L52.9-10.9Q53.45-11.8 53.45-12.33 53.45-12.85 52.6-12.85 51.75-12.85 49.35-10.6L49.35-10.6Q45.75-7.3 42.4-0.7L42.4-0.7Q42.1-0.2 41.72-0.08 41.35 0.05 40.25 0.1 39.15 0.15 38.8 0.35L38.8 0.35Q39.6-1.25 41.95-6.2L41.95-6.2Q46.15-14.95 47.45-16.2L47.45-16.2Q48.05-16.8 49.1-16.8L49.1-16.8Q49.3-16.8 50.12-16.65 50.95-16.5 51.35-16.6L51.35-16.6Q49.5-15.6 45.3-7.2L45.3-7.2Q47.65-10.1 49.57-11.83 51.5-13.55 54.2-15.03 56.9-16.5 58.15-16.5L58.15-16.5Q58.45-16.5 58.7-16.4ZM69.45-17.5L69.45-17.5Q73.09-17.5 73.09-12.9L73.09-12.9Q73.09-10.8 72-8.4L72-8.4Q70.59-5.15 67.8-2.5L67.8-2.5Q68.45-1.25 70.15-1.25L70.15-1.25Q71.5-1.25 72.7-2.6L72.7-2.6Q74.2-4.15 74.84-5.33 75.5-6.5 75.8-7.05 76.09-7.6 76.57-8.63 77.05-9.65 77.15-9.88 77.25-10.1 77.5-10.1L77.5-10.1Q78-10.15 78-9.75L78-9.75Q78-9.6 77.9-9.4L77.9-9.4 77.59-8.7Q77.3-8 77.15-7.7 77-7.4 76.62-6.63 76.25-5.85 75.97-5.4 75.7-4.95 75.22-4.2 74.75-3.45 74.37-3 74-2.55 73.45-2 72.9-1.45 72.4-1.15L72.4-1.15Q71.15-0.4 70.05-0.4L70.05-0.4Q68-0.4 66.84-1.7L66.84-1.7Q64.55 0 62.6 0L62.6 0Q58.95 0 58.95-4.6L58.95-4.6Q58.95-6.7 60.05-9.1L60.05-9.1Q61.55-12.6 64.27-15.05 67-17.5 69.45-17.5ZM70-15.95L70-15.95Q68.65-15.95 66.8-14.15 64.95-12.35 63.5-9.25L63.5-9.25Q61.75-5.65 61.75-3.35 61.75-1.05 63.5-1.05L63.5-1.05Q64.75-1.05 66.3-2.4L66.3-2.4Q65.5-3.55 65.5-4.85L65.5-4.85Q65.59-7 67.25-7L67.25-7Q67.9-7 68.32-6.55 68.75-6.1 68.75-5.73 68.75-5.35 68.65-4.95L68.65-4.95Q69.5-6.2 70.59-8.5L70.59-8.5Q71.84-11.05 71.84-13.5 71.84-15.95 70-15.95ZM86.29-11.5L86.29-11.5Q88.04-13.6 88.04-15.05 88.04-16.5 86.84-16.5L86.84-16.5Q84.49-16.5 81.49-12.2L81.49-12.2Q80.54-10.85 79.64-8.65 78.74-6.45 78.74-4.67 78.74-2.9 79.47-1.8 80.19-0.7 81.72-0.7 83.24-0.7 84.54-1.43 85.84-2.15 87.02-3.73 88.19-5.3 88.79-6.35 89.39-7.4 90.44-9.5L90.44-9.5Q90.79-10.2 91.04-10.08 91.29-9.95 91.29-9.73 91.29-9.5 90.62-8.08 89.94-6.65 89.27-5.4 88.59-4.15 87.34-2.6L87.34-2.6Q85.09 0.2 81.19 0.2L81.19 0.2Q78.39 0.2 77.17-1.18 75.94-2.55 75.94-4.35L75.94-4.35Q75.94-6.55 77.02-9.15 78.09-11.75 79.49-13.65L79.49-13.65Q82.39-17.6 86.19-17.6L86.19-17.6Q88.04-17.6 88.87-16.73 89.69-15.85 89.69-14.7L89.69-14.7Q89.69-13 88.29-11.8L88.29-11.8Q87.59-11.15 87.12-11.15 86.64-11.15 86.29-11.5ZM98.99-2.25L98.99-2.25Q98.99-0.85 99.99-0.85L99.99-0.85Q102.34-0.85 106.64-9.65L106.64-9.65Q106.99-10.35 107.27-10.2 107.54-10.05 107.54-9.8 107.54-9.55 106.97-8.38 106.39-7.2 105.82-6.13 105.24-5.05 104.14-3.3L104.14-3.3Q101.84 0.2 99.24 0.2L99.24 0.2Q97.54 0.2 96.54-1.2L96.54-1.2Q96.09-1.85 96.09-2.98 96.09-4.1 96.59-5.7 97.09-7.3 99.34-10.9L99.34-10.9Q99.89-11.8 99.89-12.33 99.89-12.85 99.04-12.85 98.19-12.85 95.79-10.6L95.79-10.6Q92.19-7.3 88.79-0.7L88.79-0.7Q88.44 0.05 86.94 0.05L86.94 0.05Q85.59 0.15 85.24 0.35L85.24 0.35Q94.74-19.4 98.99-27.2L98.99-27.2Q99.94-28.95 100.67-29.65 101.39-30.35 102.39-30.35L102.39-30.35Q102.64-30.35 103.44-30.23 104.24-30.1 104.64-30.15L104.64-30.15Q103.14-28.6 99.27-21.58 95.39-14.55 91.84-7.3L91.84-7.3Q94.19-10.25 96.07-11.9 97.94-13.55 100.64-15.03 103.34-16.5 104.59-16.5L104.59-16.5Q104.89-16.5 105.14-16.4L105.14-16.4Q98.99-5.6 98.99-2.25Z" opacity="1" transform="matrix(1,0,0,1,0,0)" fill="#ff3c38" class="undefined-text-0" data-fill-palette-color="primary" id="text-0"></path></svg></g></svg></g><g transform="matrix(1,0,0,1,0,121.84722944673531)"><svg viewBox="0 0 244.43135999999998 17.62516063724127" height="17.62516063724127" width="244.43135999999998"><g transform="matrix(1,0,0,1,0,0)"><svg width="244.43135999999998" viewBox="1.05 -34.91 614.47 44.31" height="17.62516063724127" data-palette-color="#ff3c38"><path d="M15.92-27L15.92 0.15Q14.75 0 9.89 0L9.89 0 9.11 0 9.11-27 4.27-27Q2.12-27 1.73-26.78 1.34-26.56 1.12-26.39L1.12-26.39 1.05-26.42 1.05-32.67 1.12-32.74Q1.93-32.47 5.47-32.47L5.47-32.47 20.78-32.47Q22.92-32.47 23.32-32.69 23.71-32.91 23.93-33.08L23.93-33.08 24-33.06 24-26.81 23.93-26.73Q23.12-27 19.58-27L19.58-27 15.92-27ZM35.25-16.97L35.25-2.73Q35.25-0.63 35.35 0L35.35 0 29.27 0 29.27-34.91 35.25-34.91 35.25-23.61Q38.4-26 41.75-26L41.75-26Q45.85-26 48.34-23.29L48.34-23.29Q50.78-20.58 50.78-16.11L50.78-16.11 50.78-6.4Q50.78-2.27 50.9-1.44 51.02-0.61 51.23-0.37 51.44-0.12 51.58 0.07L51.58 0.07 51.54 0.17Q49.56 0 48.65 0L48.65 0 46.92 0Q46.12 0 44.8 0.07L44.8 0.07 44.8-14.06Q44.8-17.43 43.31-19.04L43.31-19.04Q42.19-20.26 40.26-20.26L40.26-20.26Q37.4-20.26 35.25-16.97L35.25-16.97ZM56.54-12.55L56.54-12.55Q56.54-15.41 57.51-17.85 58.49-20.29 60.27-22.12L60.27-22.12Q64.08-26 70.23-26L70.23-26Q75.43-26 78.58-22.56L78.58-22.56Q81.68-19.24 81.68-14.21L81.68-14.21Q81.68-12.28 81.39-11.57L81.39-11.57Q78.95-10.89 71.45-10.89L71.45-10.89 62.86-10.89Q63.5-8.28 65.82-6.82 68.13-5.37 71.85-5.37L71.85-5.37Q75.73-5.37 78.51-6.76L78.51-6.76Q79.24-7.13 79.61-7.45L79.61-7.45Q79.56-6.42 79.49-5.35L79.49-5.35 79.22-1.54Q77.36-0.27 73.21 0.22L73.21 0.22Q71.99 0.37 70.87 0.37L70.87 0.37Q64.67 0.37 60.62-3.25L60.62-3.25Q56.54-6.88 56.54-12.55ZM75.19-15.63L75.19-15.63Q74.19-20.87 69.48-20.87L69.48-20.87Q65.77-20.87 63.84-17.68L63.84-17.68Q63.25-16.7 62.93-15.53L62.93-15.53Q63.52-15.5 64.37-15.48L64.37-15.48 66.18-15.48Q67.08-15.45 67.91-15.45L67.91-15.45 69.31-15.45Q70.55-15.45 71.75-15.48L71.75-15.48 73.75-15.55Q74.56-15.58 75.19-15.63ZM124.68-2.38Q122.89-0.95 120.03-0.17 117.18 0.61 113.01 0.61 108.85 0.61 104.16-0.15L104.16-0.15 104.16-32.32Q108.9-33.08 112.38-33.08 115.86-33.08 118.09-32.42 120.33-31.76 121.74-30.64L121.74-30.64Q124.53-28.47 124.53-25.01 124.53-21.56 122.01-19.29L122.01-19.29Q124.99-18.36 126.63-15.77L126.63-15.77Q128.12-13.45 128.12-10.63 128.12-7.81 127.3-5.81 126.48-3.81 124.68-2.38ZM110.63-27.81L110.63-20.19Q111.66-20.02 113.2-20.02 114.74-20.02 115.72-20.42 116.71-20.83 117.25-21.44L117.25-21.44Q118.13-22.44 118.13-24.22L118.13-24.22Q118.13-27.95 113.74-27.95L113.74-27.95Q111.88-27.95 110.63-27.81L110.63-27.81ZM114.25-14.97L114.25-14.97Q112.2-14.97 110.63-14.7L110.63-14.7 110.63-5.1Q112.34-4.66 114.22-4.66 116.1-4.66 117.53-5.11 118.96-5.57 119.94-6.35L119.94-6.35Q121.91-7.96 121.91-10.45L121.91-10.45Q121.91-14.97 114.25-14.97ZM131.55-12.55L131.55-12.55Q131.55-15.41 132.53-17.85 133.51-20.29 135.29-22.12L135.29-22.12Q139.1-26 145.25-26L145.25-26Q150.45-26 153.6-22.56L153.6-22.56Q156.7-19.24 156.7-14.21L156.7-14.21Q156.7-12.28 156.41-11.57L156.41-11.57Q153.97-10.89 146.47-10.89L146.47-10.89 137.88-10.89Q138.51-8.28 140.83-6.82 143.15-5.37 146.86-5.37L146.86-5.37Q150.74-5.37 153.53-6.76L153.53-6.76Q154.26-7.13 154.63-7.45L154.63-7.45Q154.58-6.42 154.5-5.35L154.5-5.35 154.24-1.54Q152.38-0.27 148.23 0.22L148.23 0.22Q147.01 0.37 145.89 0.37L145.89 0.37Q139.68 0.37 135.63-3.25L135.63-3.25Q131.55-6.88 131.55-12.55ZM150.21-15.63L150.21-15.63Q149.21-20.87 144.49-20.87L144.49-20.87Q140.78-20.87 138.85-17.68L138.85-17.68Q138.27-16.7 137.95-15.53L137.95-15.53Q138.54-15.5 139.39-15.48L139.39-15.48 141.2-15.48Q142.1-15.45 142.93-15.45L142.93-15.45 144.32-15.45Q145.57-15.45 146.76-15.48L146.76-15.48 148.77-15.55Q149.57-15.58 150.21-15.63ZM170.59 0.37L170.59 0.37Q163.71 0.37 160.21-2.15L160.21-2.15Q160.26-2.88 160.36-3.81L160.36-3.81 160.58-5.57Q160.78-7.3 160.82-7.73 160.87-8.15 160.9-8.19 160.92-8.23 161.29-7.8 161.65-7.37 162.68-6.76 163.71-6.15 165.05-5.69L165.05-5.69Q167.95-4.69 171.1-4.69L171.1-4.69Q175.33-4.69 175.33-7.5L175.33-7.5Q175.33-8.4 174.52-8.84L174.52-8.84Q173.08-9.57 170.29-9.95 167.49-10.33 165.71-11.06 163.93-11.79 162.8-12.82L162.8-12.82Q160.73-14.75 160.73-17.87L160.73-17.87Q160.73-21.68 163.66-23.85L163.66-23.85Q166.56-26 171.69-26L171.69-26Q176.77-26 180.36-23.12L180.36-23.12Q180.19-22.49 179.99-21.9L179.99-21.9Q179.43-20.29 179.16-19.58L179.16-19.58 178.6-18.14Q178.55-17.94 178.53-17.94L178.53-17.94Q178.48-17.94 178.13-18.46L178.13-18.46Q176.6-20.24 173.35-20.8L173.35-20.8Q172.35-21 171.3-21L171.3-21Q166.86-21 166.86-18.31L166.86-18.31Q166.86-17.38 167.78-16.89L167.78-16.89Q169.52-15.97 172.53-15.53 175.55-15.09 177.11-14.34 178.67-13.6 179.62-12.55L179.62-12.55Q181.38-10.64 181.38-7.5L181.38-7.5Q181.38-4.05 178.62-1.9L178.62-1.9Q175.74 0.37 170.59 0.37ZM198.37-5.37L198.37-5.37Q201.52-5.37 202.69-7.01L202.69-7.01 202.89-7.01 202.96-1.34Q201.76-0.15 198.52 0.24L198.52 0.24Q197.64 0.37 196.33 0.37 195.03 0.37 193.5-0.12 191.97-0.61 190.9-1.71L190.9-1.71Q188.68-3.98 188.68-8.81L188.68-8.81 188.68-19.9 184.99-19.9Q184.97-20.61 184.97-21.34L184.97-21.34 184.97-25.1Q184.97-25.51 184.99-25.51L184.99-25.51 188.68-25.51 188.68-32.47 194.66-32.47 194.66-25.51 201.37-25.51 201.37-19.9 194.66-19.9 194.66-9.94Q194.66-6.1 196.78-5.57L196.78-5.57Q197.47-5.37 198.37-5.37ZM231.47-5.86L241.43-5.86Q242.95-5.86 243.53-6.15L243.53-6.15 243.63-6.13 243.39 0 225.1 0 225.1-32.64Q225.76-32.59 226.56-32.57L226.56-32.57 228.27-32.52Q229.98-32.47 231.98-32.47L231.98-32.47Q237.58-32.47 243.04-32.67L243.04-32.67Q242.78-30.52 242.78-26.93L242.78-26.93Q242.78-26.54 242.82-26.34L242.82-26.34 242.78-26.27Q241.51-26.64 239.16-26.64L239.16-26.64 231.47-26.64 231.47-20.41 237.26-20.41Q239.94-20.41 240.48-20.56L240.48-20.56 240.55-14.53Q239.38-14.65 237.53-14.65L237.53-14.65 231.47-14.65 231.47-5.86ZM268.92-8.33L269.48-2.37Q266.75 0.37 260.91 0.37L260.91 0.37Q255.25 0.37 251.66-3.08L251.66-3.08Q248.02-6.57 248.02-12.35L248.02-12.35Q248.02-18.24 251.61-22.02L251.61-22.02Q255.42-26 261.79-26L261.79-26Q266.31-26 269.36-24.02L269.36-24.02 268.38-17.77 268.21-17.8Q267.04-19.21 265.75-19.65L265.75-19.65Q263.65-20.39 261.55-20.39 259.45-20.39 258.25-19.85 257.06-19.31 256.2-18.36L256.2-18.36Q254.49-16.41 254.49-13.18L254.49-13.18Q254.49-7.47 258.45-5.71L258.45-5.71Q259.81-5.13 261.34-5.13 262.87-5.13 264-5.4 265.14-5.66 266.06-6.13L266.06-6.13Q268.04-7.1 268.75-8.4L268.75-8.4 268.92-8.33ZM272.73-12.62L272.73-12.62Q272.73-15.31 273.64-17.76 274.56-20.21 276.27-22.05L276.27-22.05Q280-26 285.96-26L285.96-26Q291.89-26 295.38-22.27L295.38-22.27Q298.73-18.7 298.73-13.01L298.73-13.01Q298.73-7.32 295.29-3.59L295.29-3.59Q291.65 0.37 285.64 0.37L285.64 0.37Q279.44 0.37 275.92-3.52L275.92-3.52Q272.73-7.06 272.73-12.62ZM278.66-12.77L278.66-12.77Q278.66-11.23 279.17-9.79 279.68-8.35 280.64-7.32L280.64-7.32Q282.66-5.1 285.96-5.1L285.96-5.1Q289.01-5.1 290.77-7.28L290.77-7.28Q292.48-9.38 292.48-12.74L292.48-12.74Q292.48-16.16 290.72-18.26L290.72-18.26Q288.84-20.51 285.57-20.51L285.57-20.51Q282.25-20.51 280.37-18.12L280.37-18.12Q278.66-15.92 278.66-12.77ZM310.39-17.16L310.39-7.06Q310.39-1.56 310.59 0L310.59 0 304.22 0 304.22-25.51 310.39-25.51 310.39-23.32Q313.74-26 317.26-26L317.26-26Q321.41-26 323.29-22.41L323.29-22.41Q325.17-24.34 326.41-24.95L326.41-24.95Q328.49-26 330.57-26 332.66-26 334.13-25.29 335.59-24.58 336.54-23.29L336.54-23.29Q338.47-20.68 338.47-16.11L338.47-16.11 338.47-6.4Q338.47-2.27 338.59-1.44 338.72-0.61 338.92-0.37 339.13-0.12 339.28 0.07L339.28 0.07 339.23 0.17Q337.27 0 336.35 0L336.35 0 334.52 0Q333.61 0 332.29 0.07L332.29 0.07 332.29-13.13Q332.29-18.85 330.54-19.92L330.54-19.92Q329.95-20.26 329.16-20.26 328.36-20.26 327.75-20.08 327.14-19.9 326.61-19.48L326.61-19.48Q325.7-18.82 324.55-16.89L324.55-16.89Q324.58-16.7 324.58-16.5 324.58-16.31 324.58-10.06 324.58-3.81 324.87 0L324.87 0Q322.8 0 321.34 0 319.89 0 318.57 0.07L318.57 0.07 318.57-13.16Q318.57-17.14 318.1-18.33 317.62-19.53 317.08-19.9 316.55-20.26 315.77-20.26L315.77-20.26Q312.54-20.26 310.39-17.16L310.39-17.16ZM352.14-17.16L352.14-7.06Q352.14-1.56 352.34 0L352.34 0 345.96 0 345.96-25.51 352.14-25.51 352.14-23.32Q355.49-26 359-26L359-26Q363.15-26 365.03-22.41L365.03-22.41Q366.91-24.34 368.16-24.95L368.16-24.95Q370.23-26 372.32-26 374.41-26 375.87-25.29 377.34-24.58 378.29-23.29L378.29-23.29Q380.22-20.68 380.22-16.11L380.22-16.11 380.22-6.4Q380.22-2.27 380.34-1.44 380.46-0.61 380.67-0.37 380.88-0.12 381.02 0.07L381.02 0.07 380.97 0.17Q379.02 0 378.09 0L378.09 0 376.26 0Q375.36 0 374.04 0.07L374.04 0.07 374.04-13.13Q374.04-18.85 372.28-19.92L372.28-19.92Q371.7-20.26 370.9-20.26 370.11-20.26 369.5-20.08 368.89-19.9 368.35-19.48L368.35-19.48Q367.45-18.82 366.3-16.89L366.3-16.89Q366.32-16.7 366.32-16.5 366.32-16.31 366.32-10.06 366.32-3.81 366.62 0L366.62 0Q364.54 0 363.09 0 361.64 0 360.32 0.07L360.32 0.07 360.32-13.16Q360.32-17.14 359.84-18.33 359.37-19.53 358.83-19.9 358.29-20.26 357.51-20.26L357.51-20.26Q354.29-20.26 352.14-17.16L352.14-17.16ZM386.07-12.55L386.07-12.55Q386.07-15.41 387.05-17.85 388.03-20.29 389.81-22.12L389.81-22.12Q393.62-26 399.77-26L399.77-26Q404.97-26 408.12-22.56L408.12-22.56Q411.22-19.24 411.22-14.21L411.22-14.21Q411.22-12.28 410.93-11.57L410.93-11.57Q408.49-10.89 400.99-10.89L400.99-10.89 392.4-10.89Q393.03-8.28 395.35-6.82 397.67-5.37 401.38-5.37L401.38-5.37Q405.26-5.37 408.05-6.76L408.05-6.76Q408.78-7.13 409.14-7.45L409.14-7.45Q409.1-6.42 409.02-5.35L409.02-5.35 408.75-1.54Q406.9-0.27 402.75 0.22L402.75 0.22Q401.53 0.37 400.4 0.37L400.4 0.37Q394.2 0.37 390.15-3.25L390.15-3.25Q386.07-6.88 386.07-12.55ZM404.73-15.63L404.73-15.63Q403.72-20.87 399.01-20.87L399.01-20.87Q395.3-20.87 393.37-17.68L393.37-17.68Q392.79-16.7 392.47-15.53L392.47-15.53Q393.06-15.5 393.91-15.48L393.91-15.48 395.72-15.48Q396.62-15.45 397.45-15.45L397.45-15.45 398.84-15.45Q400.09-15.45 401.28-15.48L401.28-15.48 403.29-15.55Q404.09-15.58 404.73-15.63ZM422.28-17.77L422.28-2.73Q422.28-0.63 422.37 0L422.37 0 416.3 0 416.3-25.51 422.28-25.51 422.28-23.63Q424.35-26 426.63-26 428.92-26 430.24-25.44L430.24-25.44 429.8-18.87 429.7-18.8Q428.84-20.31 426.16-20.31L426.16-20.31Q425.13-20.31 424.07-19.62 423.01-18.92 422.28-17.77L422.28-17.77ZM452.6-8.33L453.16-2.37Q450.42 0.37 444.59 0.37L444.59 0.37Q438.92 0.37 435.34-3.08L435.34-3.08Q431.7-6.57 431.7-12.35L431.7-12.35Q431.7-18.24 435.29-22.02L435.29-22.02Q439.1-26 445.47-26L445.47-26Q449.98-26 453.04-24.02L453.04-24.02 452.06-17.77 451.89-17.8Q450.72-19.21 449.42-19.65L449.42-19.65Q447.32-20.39 445.22-20.39 443.12-20.39 441.93-19.85 440.73-19.31 439.88-18.36L439.88-18.36Q438.17-16.41 438.17-13.18L438.17-13.18Q438.17-7.47 442.12-5.71L442.12-5.71Q443.49-5.13 445.02-5.13 446.54-5.13 447.68-5.4 448.81-5.66 449.74-6.13L449.74-6.13Q451.72-7.1 452.43-8.4L452.43-8.4 452.6-8.33ZM457.04-12.55L457.04-12.55Q457.04-15.41 458.01-17.85 458.99-20.29 460.77-22.12L460.77-22.12Q464.58-26 470.73-26L470.73-26Q475.93-26 479.08-22.56L479.08-22.56Q482.18-19.24 482.18-14.21L482.18-14.21Q482.18-12.28 481.89-11.57L481.89-11.57Q479.45-10.89 471.95-10.89L471.95-10.89 463.36-10.89Q464-8.28 466.31-6.82 468.63-5.37 472.35-5.37L472.35-5.37Q476.23-5.37 479.01-6.76L479.01-6.76Q479.74-7.13 480.11-7.45L480.11-7.45Q480.06-6.42 479.99-5.35L479.99-5.35 479.72-1.54Q477.86-0.27 473.71 0.22L473.71 0.22Q472.49 0.37 471.37 0.37L471.37 0.37Q465.17 0.37 461.11-3.25L461.11-3.25Q457.04-6.88 457.04-12.55ZM475.69-15.63L475.69-15.63Q474.69-20.87 469.98-20.87L469.98-20.87Q466.27-20.87 464.34-17.68L464.34-17.68Q463.75-16.7 463.43-15.53L463.43-15.53Q464.02-15.5 464.87-15.48L464.87-15.48 466.68-15.48Q467.58-15.45 468.41-15.45L468.41-15.45 469.81-15.45Q471.05-15.45 472.25-15.48L472.25-15.48 474.25-15.55Q475.06-15.58 475.69-15.63ZM524.27-30.66L524.27-30.66 523.81-23.49 523.63-23.44Q521.83-26.15 517.48-26.95L517.48-26.95Q516.11-27.22 514.86-27.22 513.6-27.22 512.71-27 511.82-26.78 511.18-26.37L511.18-26.37Q509.84-25.49 509.84-24.07L509.84-24.07Q509.84-22.22 511.01-21.29L511.01-21.29Q512.48-20.17 515.87-19.71 519.26-19.26 521.31-18.48 523.37-17.7 524.68-16.5L524.68-16.5Q527.17-14.26 527.17-10.16L527.17-10.16Q527.17-4.79 523.12-1.88L523.12-1.88Q519.65 0.61 514.38 0.61L514.38 0.61Q510.13 0.61 505.98-1L505.98-1Q504.62-1.54 503.59-2.25L503.59-2.25 503.86-10.4 503.96-10.47Q506.98-5.25 513.89-5.25L513.89-5.25Q518.8-5.25 520.39-7.62L520.39-7.62Q520.92-8.42 520.92-9.41 520.92-10.4 520.61-11.05 520.29-11.69 519.56-12.16L519.56-12.16Q518.14-13.09 514.8-13.4 511.45-13.72 509.33-14.6 507.2-15.48 505.93-16.77L505.93-16.77Q503.64-19.12 503.64-23.32L503.64-23.32Q503.64-27.66 506.69-30.35L506.69-30.35Q509.79-33.08 515.05-33.08 520.31-33.08 524.27-30.66ZM539.79-16.97L539.79-2.73Q539.79-0.63 539.89 0L539.89 0 533.81 0 533.81-34.91 539.79-34.91 539.79-23.61Q542.94-26 546.29-26L546.29-26Q550.39-26 552.88-23.29L552.88-23.29Q555.32-20.58 555.32-16.11L555.32-16.11 555.32-6.4Q555.32-2.27 555.44-1.44 555.57-0.61 555.77-0.37 555.98-0.12 556.13 0.07L556.13 0.07 556.08 0.17Q554.1 0 553.2 0L553.2 0 551.46 0Q550.66 0 549.34 0.07L549.34 0.07 549.34-14.06Q549.34-17.43 547.85-19.04L547.85-19.04Q546.73-20.26 544.8-20.26L544.8-20.26Q541.94-20.26 539.79-16.97L539.79-16.97ZM560.45-12.62L560.45-12.62Q560.45-15.31 561.36-17.76 562.28-20.21 563.99-22.05L563.99-22.05Q567.72-26 573.68-26L573.68-26Q579.61-26 583.1-22.27L583.1-22.27Q586.45-18.7 586.45-13.01L586.45-13.01Q586.45-7.32 583-3.59L583-3.59Q579.37 0.37 573.36 0.37L573.36 0.37Q567.16 0.37 563.64-3.52L563.64-3.52Q560.45-7.06 560.45-12.62ZM566.38-12.77L566.38-12.77Q566.38-11.23 566.89-9.79 567.4-8.35 568.36-7.32L568.36-7.32Q570.38-5.1 573.68-5.1L573.68-5.1Q576.73-5.1 578.49-7.28L578.49-7.28Q580.2-9.38 580.2-12.74L580.2-12.74Q580.2-16.16 578.44-18.26L578.44-18.26Q576.56-20.51 573.29-20.51L573.29-20.51Q569.97-20.51 568.09-18.12L568.09-18.12Q566.38-15.92 566.38-12.77ZM597.87-0.51L597.87-0.51 597.87 6.67Q597.87 8.76 597.97 9.4L597.97 9.4 591.89 9.4 591.89-25.51 597.87-25.51 597.87-23.93Q600.82-26 603.53-26 606.24-26 608.34-25.24 610.44-24.49 612.03-22.9L612.03-22.9Q615.52-19.46 615.52-13.09L615.52-13.09Q615.52-8.86 613.54-5.54L613.54-5.54Q611.86-2.73 608.88-1.05L608.88-1.05Q606.24 0.44 603.17 0.44 600.09 0.44 597.87-0.51ZM597.87-18.43L597.87-6.67Q599.73-5.1 602.68-5.1L602.68-5.1Q607.51-5.1 608.93-9.77L608.93-9.77Q609.42-11.35 609.42-13.17 609.42-14.99 609.08-16.08 608.73-17.16 608.18-17.96 607.64-18.75 606.95-19.27 606.27-19.8 605.56-20.12L605.56-20.12Q604.32-20.68 603-20.68 601.68-20.68 600.26-20.07 598.85-19.46 597.87-18.43L597.87-18.43Z" opacity="1" transform="matrix(1,0,0,1,0,0)" fill="#ff3c38" class="undefined-text-1" data-fill-palette-color="secondary" id="text-1"></path></svg></g></svg></g></svg></g></svg></g></svg></g></svg></g></svg></g><g><path d="M245.816 0c68.262 0 123.6 55.338 123.6 123.6 0 68.262-55.338 123.6-123.6 123.6-37.1 0-70.382-16.346-93.038-42.228h5.994c21.745 23.251 52.697 37.783 87.044 37.783 65.808 0 119.155-53.348 119.155-119.155 0-65.808-53.348-119.155-119.155-119.155-34.347 0-65.299 14.532-87.044 37.783l-5.994 0c22.656-25.882 55.938-42.228 93.038-42.228z" fill="#ff3c38" stroke="transparent" data-fill-palette-color="tertiary"></path></g></svg></g><defs></defs></svg><rect width="395.52" height="247.2" fill="none" stroke="none" visibility="hidden"></rect></g></svg></g></svg>